<?xml version="1.0" encoding="UTF-8"?><svg id="Layer_1" xmlns="http://www.w3.org/2000/svg" viewBox="0 0 3404.25 1017"><defs><style>.cls-1{fill:#0017bf;}.cls-2{fill:#00005b;}</style></defs><path class="cls-1" d="M610.82,227.32l-455.4,455.31c-1.18,1.18-1.85,2.8-1.85,4.46v96.19c0,3.48,2.83,6.31,6.31,6.31h369.55c3.48,0,6.31-2.83,6.31-6.31l-31.58-119.93c0-4.8-5.15-7.84-9.36-5.53l-216.66,70.23c-6.4,3.53-12.67-4.83-7.51-9.99l331.24-331.18c3.98-3.98,10.77-1.17,10.77,4.46v391.94c0,3.48,2.83,6.31,6.31,6.31h93.91c3.48,0,6.31-2.83,6.31-6.31V231.78c0-3.48-2.83-6.31-6.31-6.31h-97.61c-1.68,0-3.28.67-4.46,1.85h.02Z"/><path class="cls-2" d="M2245.27,719.61l30.68,71.03h-18.53l-5.7-14.06h-30.94l-5.15,14.06h-18.23l27.9-71.03h19.97ZM2246.7,764.22l-11.18-27.6-10.13,27.6h21.36-.04Z"/><polygon class="cls-2" points="2383.53 719.61 2383.53 732.61 2353.14 732.61 2353.14 748.48 2383.53 748.48 2383.53 761.48 2353.14 761.48 2353.14 790.6 2335.92 790.6 2335.92 719.57 2383.49 719.57 2383.53 719.61"/><path class="cls-2" d="M2449.2,719.61h30.85c6.71,0,12.15,1.98,16.33,5.95,4.18,3.97,6.29,8.78,6.29,14.48,0,7.81-3.97,13.63-11.86,17.39,3.46,1.6,6.75,5.99,9.87,13.13,3.12,7.13,6.16,13.84,9.03,20.13h-18.91c-1.14-2.32-3.08-6.79-5.91-13.38-2.79-6.58-5.19-10.8-7.22-12.66-1.98-1.86-4.14-2.79-6.42-2.79h-4.94v28.83h-17.22v-71.03l.08-.04ZM2466.42,732.61v16.17h9.12c2.91,0,5.19-.72,6.88-2.11,1.69-1.4,2.53-3.42,2.53-6.03,0-5.36-3.29-8.02-9.83-8.02h-8.7Z"/><rect class="cls-2" x="2570.42" y="719.61" width="17.22" height="71.03"/><path class="cls-2" d="M2720.03,768.99v15.49c-8.65,4.73-17.69,7.05-27.14,7.05-12.28,0-22.03-3.5-29.29-10.47-7.26-6.96-10.89-15.53-10.89-25.74s3.84-18.87,11.48-26c7.68-7.13,17.69-10.68,30.05-10.68,9.87,0,18.19,2.07,25.03,6.25v15.82c-8.36-4.85-16.29-7.26-23.8-7.26s-13.38,2.03-18.02,6.07c-4.64,4.05-7,9.2-7,15.49s2.28,11.52,6.88,15.61c4.6,4.1,10.51,6.16,17.69,6.16,3.54,0,7-.46,10.3-1.44,3.29-.97,8.23-3.08,14.73-6.37Z"/><path class="cls-2" d="M2826.22,719.61l30.68,71.03h-18.53l-5.7-14.06h-30.94l-5.15,14.06h-18.23l27.9-71.03h19.97ZM2827.66,764.22l-11.18-27.6-10.13,27.6h21.36-.04Z"/><path class="cls-2" d="M1804.03,503.03c0,7.79-3.15,14.84-8.26,19.93-5.09,5.11-12.14,8.26-19.93,8.26s-14.82-3.15-19.93-8.26c-5.11-5.09-8.26-12.14-8.26-19.93s3.15-14.82,8.26-19.93c5.11-5.11,12.16-8.26,19.93-8.26,15.58,0,28.19,12.63,28.19,28.19Z"/><path class="cls-2" d="M1804.03,503.03c0,7.79-3.15,14.84-8.26,19.93-5.09,5.11-12.14,8.26-19.93,8.26s-14.82-3.15-19.93-8.26c-5.11-5.09-8.26-12.14-8.26-19.93s3.15-14.82,8.26-19.93c5.11-5.11,12.16-8.26,19.93-8.26,15.58,0,28.19,12.63,28.19,28.19Z"/><path class="cls-2" d="M1042.87,610.16h-117.36l-19.48,63.31h-107.62l120.77-340.87h130.02l120.77,340.87h-107.62l-19.48-63.31ZM1019.98,534.19l-35.55-116.38-36.03,116.38h71.58Z"/><path class="cls-2" d="M1350.48,332.59v340.87h-101.29v-340.87h101.29Z"/><path class="cls-2" d="M1712.27,566.59c-16.27-16.27-26.32-38.74-26.32-63.57,0-1.11.02-2.22.07-3.33-.14-.02-.29-.05-.43-.07.14-.04.3-.07.45-.11.88-23.44,10.73-44.55,26.23-60.07,10.94-10.92,24.65-19.04,40.01-23.19-1.5-49.31-46.8-83.67-110.02-83.67h-170.44v340.86h175.8c60.59,0,106.69-32.95,111.16-82.16-17.98-3.45-34.06-12.26-46.52-24.71ZM1570.69,411.48h44.8c22.4,0,36.52,12.17,36.52,27.75s-16.07,26.78-35.06,26.78h-46.27v-54.53ZM1619.87,594.58h-49.18v-60.39h50.65c19.97,0,36.04,13.64,36.04,31.16,0,14.61-12.17,29.23-37.51,29.23Z"/><path class="cls-2" d="M2035.71,330.93h-132.86l-46.98,131.04c6.31,12.3,9.89,26.24,9.89,41.05,0,24.83-10.05,47.3-26.33,63.57-7.96,7.96-17.39,14.43-27.87,18.97l-32.13,89.58h109.98l19.92-63.93h119.92l19.92,63.93h109.96l-123.41-344.21ZM1932.7,534.5l36.83-117.52,36.33,117.52h-73.15Z"/><path class="cls-2" d="M2447.7,502.54l107.13,170.92h-129.05l-49.67-101.29-50.16,101.29h-128.56l107.13-170.92-107.13-169.95h123.2l55.51,102.75,55.51-102.75h123.2l-107.13,169.95Z"/><path class="cls-2" d="M2957.06,340.17l-122.72,224.74v108.56h-101.77v-108.56l-123.69-224.74h126.61l47.24,115.23,47.24-115.23h127.1Z"/><path class="cls-2" d="M2992.83,647.08v-102.77c34.72,26.38,83.33,53.23,121.28,53.23,17.59,0,28.24-7.87,28.24-21.29,0-49.53-151.37-27.77-151.37-135.63,0-63.88,53.24-100.45,134.71-100.45,30.55,0,78.7,6.02,108.32,14.81v99.06c-33.79-22.22-74.07-39.35-104.15-39.35-20.83,0-30.09,8.79-30.09,20.83,0,46.29,150.91,14.35,150.91,128.69,0,59.25-42.13,109.25-127.3,109.25-29.62,0-84.71-6.48-130.54-26.38Z"/></svg>